<?xml version="1.0" standalone="no"?>
<!DOCTYPE svg PUBLIC "-//W3C//DTD SVG 20010904//EN"
 "http://www.w3.org/TR/2001/REC-SVG-20010904/DTD/svg10.dtd">
<svg version="1.0" xmlns="http://www.w3.org/2000/svg"
 width="500.000000pt" height="500.000000pt" viewBox="0 0 500.000000 500.000000"
 preserveAspectRatio="xMidYMid meet">
<metadata>
Created by potrace 1.11, written by Peter Selinger 2001-2013
</metadata>
<g transform="translate(0.000000,500.000000) scale(0.100000,-0.100000)"
fill="#000000" stroke="none">
<path d="M170 2520 l0 -2330 2330 0 2330 0 0 145 0 145 -1482 1 c-816 1 -1456
5 -1423 9 380 50 596 284 656 712 6 46 11 155 11 243 0 433 -103 627 -409 772
l-77 37 62 27 c277 124 372 317 372 759 0 358 -68 579 -229 741 -57 57 -95 85
-151 112 -140 67 -161 70 -602 74 l-398 5 0 -1746 0 -1746 -350 0 -350 0 0
290 0 290 145 0 145 0 0 150 0 150 -145 0 -145 0 0 290 0 290 145 0 145 0 0
145 0 145 -145 0 -145 0 0 290 0 290 145 0 146 0 -3 146 -3 146 -142 -1 -143
-2 0 291 0 290 145 0 145 0 0 150 0 150 -145 0 -145 0 0 435 0 435 -145 0
-145 0 0 -2330z m1692 1037 c102 -50 167 -143 205 -292 24 -96 24 -397 0 -503
-50 -223 -147 -304 -394 -328 l-73 -7 0 583 0 582 103 -4 c87 -3 111 -8 159
-31z m-90 -1511 c171 -37 263 -125 313 -302 25 -89 32 -402 12 -512 -45 -235
-154 -327 -414 -348 l-83 -7 0 592 0 591 53 0 c28 0 82 -7 119 -14z"/>
</g>
</svg>
